# xmcd
#
# Track frame offsets:
#	150
#	14885
#	37850
#	54675
#	77315
#	103950
#	121755
#	145330
#	159865
#	180420
#
# Disc length: 2764 seconds
#
# Revision: 1
# Processed by: cddbd v1.5.1PL0 Copyright (c) Steve Scherf et al.
# Submitted via: CDex 1.50Beta5
#
DISCID=770aca0a
DTITLE=安部恭弘 - Hold Me Tight
DYEAR=1900
DGENRE=Pop
TTITLE0=We Got It!
TTITLE1=Season
TTITLE2=I Love You
TTITLE3=裸足のバレリーナ
TTITLE4=Hold Me Tight
TTITLE5=CAFE FLAMINGO
TTITLE6=SINGLE ROOM
TTITLE7=BAD BOY
TTITLE8=FUNNY LADY
TTITLE9=マンハッタン
EXTD=
EXTT0=
EXTT1=
EXTT2=
EXTT3=
EXTT4=
EXTT5=
EXTT6=
EXTT7=
EXTT8=
EXTT9=
PLAYORDER=
